<svg width="276" height="29" viewBox="0 0 276 29" fill="none" xmlns="http://www.w3.org/2000/svg">
<path d="M267.742 28.64C264.462 28.64 262.262 26.2 262.262 22.68C262.262 18.76 264.782 16.52 268.742 16.52H273.102V15.36C273.102 11.88 271.582 10 269.102 10C266.542 10 265.102 11.96 264.982 14.12H262.822C263.022 10.72 265.262 8 269.102 8C272.822 8 275.222 10.64 275.222 15.36V28.32H273.422L273.102 25.24H272.902C272.062 27.12 270.302 28.64 267.742 28.64ZM267.942 26.64C271.302 26.64 273.102 23.52 273.102 19.48V18.52H268.862C265.862 18.52 264.422 20.2 264.422 22.68C264.422 25.08 265.702 26.64 267.942 26.64Z" fill="#1B1B1B"/>
<path d="M250.432 28.6403C246.472 28.6403 243.352 24.5203 243.352 18.3203C243.352 12.1203 246.472 8.00031 250.432 8.00031C252.512 8.00031 254.672 9.48031 255.752 11.8003H255.912V0.320312H258.032V28.3203H256.232L255.912 24.8403H255.752C254.672 27.1603 252.512 28.6403 250.432 28.6403ZM250.672 26.6403C253.432 26.6403 255.912 23.4403 255.912 18.3203C255.912 13.2003 253.432 10.0003 250.672 10.0003C247.872 10.0003 245.472 13.2403 245.472 18.3203C245.472 23.4003 247.872 26.6403 250.672 26.6403Z" fill="#1B1B1B"/>
<path d="M232.683 28.64C229.403 28.64 227.203 26.2 227.203 22.68C227.203 18.76 229.723 16.52 233.683 16.52H238.043V15.36C238.043 11.88 236.523 10 234.043 10C231.483 10 230.043 11.96 229.923 14.12H227.763C227.963 10.72 230.203 8 234.043 8C237.763 8 240.163 10.64 240.163 15.36V28.32H238.363L238.043 25.24H237.843C237.003 27.12 235.243 28.64 232.683 28.64ZM232.883 26.64C236.243 26.64 238.043 23.52 238.043 19.48V18.52H233.803C230.803 18.52 229.363 20.2 229.363 22.68C229.363 25.08 230.643 26.64 232.883 26.64Z" fill="#1B1B1B"/>
<path d="M210.139 28.3203H206.499L202.379 8.32031H204.579L208.059 26.0403H208.659L212.139 8.32031H215.619L219.059 26.0403H219.699L223.139 8.32031H225.379L221.259 28.3203H217.619L214.179 10.8403H213.539L210.139 28.3203Z" fill="#1B1B1B"/>
<path d="M199.75 3.40086H197.23V0.880859H199.75V3.40086ZM199.59 28.3209H197.43V8.32086H199.59V28.3209Z" fill="#1B1B1B"/>
<path d="M184.998 28.6403C181.038 28.6403 177.918 24.5203 177.918 18.3203C177.918 12.1203 181.038 8.00031 184.998 8.00031C187.078 8.00031 189.238 9.48031 190.318 11.8003H190.478V0.320312H192.598V28.3203H190.798L190.478 24.8403H190.318C189.238 27.1603 187.078 28.6403 184.998 28.6403ZM185.238 26.6403C187.998 26.6403 190.478 23.4403 190.478 18.3203C190.478 13.2003 187.998 10.0003 185.238 10.0003C182.438 10.0003 180.038 13.2403 180.038 18.3203C180.038 23.4003 182.438 26.6403 185.238 26.6403Z" fill="#1B1B1B"/>
<path d="M167.199 28.6403C163.759 28.6403 161.039 25.6403 161.039 20.6403V8.32031H163.199V20.6803C163.199 24.2803 164.919 26.6403 167.479 26.6403C170.439 26.6403 172.399 23.6803 172.399 19.8403V8.32031H174.519V28.3203H172.719L172.399 25.5203H172.239C171.239 27.3203 169.519 28.6403 167.199 28.6403Z" fill="#1B1B1B"/>
<path d="M147.573 16.24V14.12H156.653V28.32H154.893L154.613 23.52H154.493C153.333 26.16 150.693 28.64 147.213 28.64C141.453 28.64 136.973 23.16 136.973 14.32C136.973 5.48 141.453 0 147.213 0C151.693 0 155.333 3.52 156.413 8.72H154.173C152.973 4.48 150.253 2.12 147.213 2.12C142.733 2.12 139.213 6.8 139.213 14.32C139.213 21.84 142.733 26.52 147.213 26.52C151.093 26.52 154.373 22.2 154.373 17.2V16.24H147.573Z" fill="#1B1B1B"/>
<path d="M114.332 28.3203H112.172V0.320312H114.332V11.1203H114.452C115.452 9.32031 117.172 8.00031 119.492 8.00031C122.972 8.00031 125.652 11.0003 125.652 16.0003V28.3203H123.532V15.9603C123.532 12.3603 121.772 10.0003 119.212 10.0003C116.292 10.0003 114.332 12.9603 114.332 16.8003V28.3203Z" fill="#1B1B1B"/>
<path d="M108.521 28.3207H105.241C103.241 28.3207 102.081 27.0807 102.081 25.0807V10.3207H99.4414V8.32071H102.081V2.7207H104.201V8.32071H108.521V10.3207H104.201V24.8007C104.201 25.8407 104.641 26.3207 105.641 26.3207H108.521V28.3207Z" fill="#1B1B1B"/>
<path d="M85.6717 28.32H83.5117V8.32H85.3117L85.6717 11.12H85.7917C86.7917 9.32 88.5117 8 90.8317 8C94.3117 8 96.9917 11 96.9917 16V28.32H94.8717V15.96C94.8717 12.36 93.1117 10 90.5517 10C87.6317 10 85.6717 12.96 85.6717 16.8V28.32Z" fill="#1B1B1B"/>
<path d="M71.605 28.64C68.325 28.64 66.125 26.2 66.125 22.68C66.125 18.76 68.645 16.52 72.605 16.52H76.965V15.36C76.965 11.88 75.445 10 72.965 10C70.405 10 68.965 11.96 68.845 14.12H66.685C66.885 10.72 69.125 8 72.965 8C76.685 8 79.085 10.64 79.085 15.36V28.32H77.285L76.965 25.24H76.765C75.925 27.12 74.165 28.64 71.605 28.64ZM71.805 26.64C75.165 26.64 76.965 23.52 76.965 19.48V18.52H72.725C69.725 18.52 68.285 20.2 68.285 22.68C68.285 25.08 69.565 26.64 71.805 26.64Z" fill="#1B1B1B"/>
<path d="M49.0608 28.3203H45.4208L41.3008 8.32031H43.5008L46.9808 26.0403H47.5808L51.0608 8.32031H54.5408L57.9808 26.0403H58.6208L62.0608 8.32031H64.3008L60.1808 28.3203H56.5408L53.1008 10.8403H52.4608L49.0608 28.3203Z" fill="#1B1B1B"/>
<path d="M33.6617 28.64C29.3417 28.64 27.2617 25.88 27.2617 22.52H29.4217C29.4217 24.64 30.7417 26.64 33.6617 26.64C36.1817 26.64 37.7017 25.16 37.7017 23.16C37.7017 21.44 36.7017 20.16 34.7817 19.6L32.0617 18.8C29.1417 17.96 27.5817 16.28 27.5817 13.28C27.5817 10.56 29.7017 8 33.5017 8C37.4217 8 39.6617 10.84 39.6617 14.12H37.5417C37.5417 11.84 36.1017 10 33.5017 10C31.0617 10 29.7017 11.56 29.7017 13.28C29.7017 14.88 30.4217 16.2 32.5017 16.8L35.2217 17.6C38.3817 18.52 39.8217 20.4 39.8217 23.16C39.8217 26.16 37.6217 28.64 33.6617 28.64Z" fill="#1B1B1B"/>
<path d="M23.9966 3.40086H21.4766V0.880859H23.9966V3.40086ZM23.8366 28.3209H21.6766V8.32086H23.8366V28.3209Z" fill="#1B1B1B"/>
<path d="M11.32 28.3203H7.64L0 0.320312H2.36L9.16 25.9203H9.8L16.6 0.320312H18.96L11.32 28.3203Z" fill="#1B1B1B"/>
</svg>
