<svg preserveAspectRatio="none" width="100%" height="100%" overflow="visible" style="display: block;" viewBox="0 0 543.044 181.688" fill="none" xmlns="http://www.w3.org/2000/svg">
<g id="Group 65">
<path id="Vector" d="M90.0114 43.919V64.8509H89.6511C88.0151 61.9379 85.5536 58.7095 82.1314 55.1808C78.7543 51.6521 74.1464 48.5738 68.3678 45.9161C62.5892 43.2583 56.0901 41.9219 48.9156 41.9219C40.1201 41.9219 32.0301 44.0691 24.5554 48.3186C17.0807 52.568 11.152 58.5593 6.69419 66.2924C2.25141 74.0255 0 82.5244 0 91.8492C0 101.174 2.25141 109.658 6.7092 117.391C11.167 125.124 17.0957 131.115 24.5704 135.365C32.0451 139.614 40.1201 141.762 48.9306 141.762C56.0901 141.762 62.5892 140.425 68.3828 137.767C72.3753 135.92 75.7975 133.878 78.6643 131.626V119.899C76.3078 122.151 73.6511 124.148 70.6793 125.785C64.6905 129.118 58.1914 130.8 51.137 130.8C44.0826 130.8 37.3134 129.103 31.2796 125.785C25.2458 122.451 20.4878 117.856 17.0056 111.91C13.5235 105.979 11.8424 99.312 11.8424 91.8492C11.8424 84.3864 13.5235 77.7194 17.0056 71.7882C20.4878 65.842 25.2458 61.2471 31.2796 57.9136C37.3134 54.5801 43.9175 52.8984 51.137 52.8984C58.3565 52.8984 64.6905 54.5801 70.6793 57.9136C76.668 61.2471 81.381 65.842 84.8481 71.7882C88.3303 77.7194 90.0114 84.3864 90.0114 91.8492V139.764H101.419V43.919H90.0114Z" fill="var(--fill-0, #FCFCF7)"/>
<path id="Vector_2" d="M206.229 0V64.868H205.824C204.233 61.955 201.727 58.7266 198.35 55.1979C194.972 51.6692 190.365 48.5909 184.586 45.9332C178.807 43.2754 172.308 41.939 165.134 41.939C156.338 41.939 148.188 44.0862 140.774 48.3357C133.299 52.5851 127.37 58.5764 122.912 66.3095C118.455 74.0426 116.203 82.5415 116.203 91.8513C116.203 101.161 118.455 109.66 122.912 117.393C127.37 125.126 133.299 131.117 140.774 135.367C148.188 139.616 156.323 141.764 165.134 141.764C172.293 141.764 178.792 140.427 184.586 137.769C188.578 135.923 192.001 133.88 194.867 131.628V119.901C192.511 122.153 189.854 124.15 186.882 125.787C180.894 129.12 174.35 130.802 167.28 130.802C160.211 130.802 153.516 129.105 147.423 125.787C141.389 122.453 136.631 117.859 133.194 111.912C129.712 105.981 127.971 99.3141 127.971 91.8513C127.971 84.3885 129.712 77.7215 133.194 71.7903C136.616 65.844 141.374 61.2492 147.423 57.9157C153.516 54.5822 160.121 52.9005 167.28 52.9005C174.44 52.9005 180.894 54.5822 186.882 57.9157C192.871 61.2492 197.584 65.844 201.051 71.7903C204.473 77.7215 206.214 84.3885 206.214 91.8513V139.767H217.577V0H206.214H206.229Z" fill="var(--fill-0, #FCFCF7)"/>
<path id="Vector_3" d="M323.83 43.919V64.8509H323.469C321.833 61.9379 319.372 58.7095 315.95 55.1808C312.573 51.6521 307.965 48.5738 302.186 45.9161C296.407 43.2583 289.908 41.9219 282.734 41.9219C273.938 41.9219 265.848 44.0691 258.374 48.3186C250.959 52.568 244.97 58.5593 240.512 66.2924C236.055 74.0255 233.863 82.5244 233.863 91.8342C233.863 101.144 236.07 109.643 240.512 117.376C244.97 125.109 250.959 131.1 258.374 135.35C265.848 139.599 273.923 141.747 282.734 141.747C289.893 141.747 296.392 140.41 302.186 137.752C306.179 135.905 309.601 133.863 312.467 131.611V119.884C310.111 122.136 307.454 124.133 304.483 125.77C298.494 129.103 291.995 130.785 284.94 130.785C277.886 130.785 271.117 129.088 265.083 125.77C259.049 122.436 254.291 117.841 250.809 111.895C247.327 105.964 245.646 99.297 245.646 91.8342C245.646 84.3714 247.327 77.7044 250.809 71.7732C254.291 65.8269 259.049 61.2321 265.083 57.8986C271.117 54.5651 277.781 52.8834 284.94 52.8834C292.1 52.8834 298.509 54.5651 304.483 57.8986C310.471 61.2321 315.184 65.8269 318.651 71.7732C322.134 77.7044 323.815 84.3714 323.815 91.8342V139.749H335.222V43.919H323.815H323.83Z" fill="var(--fill-0, #FCFCF7)"/>
<path id="Vector_4" d="M450.266 66.2924C445.914 58.5593 439.985 52.568 432.36 48.3186C424.78 44.0691 416.6 41.9219 407.85 41.9219C400.63 41.9219 394.191 43.2583 388.503 45.9161C382.769 48.5738 378.221 51.6521 374.784 55.1808C371.407 58.7095 368.84 61.9379 367.114 64.8509H366.709V43.919H355.137V181.688H366.709V91.8342C366.709 84.3564 368.495 77.7044 372.037 71.7732C375.565 65.8269 380.323 61.2321 386.416 57.8986C392.45 54.5651 399.054 52.8834 406.274 52.8834C413.493 52.8834 419.992 54.5651 425.921 57.8986C431.805 61.2321 436.563 65.8269 440.09 71.7732C443.617 77.7044 445.358 84.3714 445.358 91.8342C445.358 99.297 443.617 105.964 440.09 111.895C436.563 117.841 431.805 122.436 425.921 125.77C419.977 129.103 413.433 130.785 406.274 130.785C399.114 130.785 392.45 129.088 386.416 125.77C383.294 124.073 380.533 122.031 378.131 119.673V131.506C380.998 133.803 384.48 135.86 388.518 137.752C394.191 140.41 400.645 141.747 407.865 141.747C416.615 141.747 424.81 139.599 432.375 135.35C440 131.1 445.929 125.109 450.281 117.376C454.574 109.643 456.735 101.144 456.735 91.8342C456.735 82.5244 454.589 74.0255 450.281 66.2924H450.266Z" fill="var(--fill-0, #FCFCF7)"/>
<path id="Vector_5" d="M535.479 96.1888C530.511 91.4738 522.781 88.0953 512.395 86.0531L503.239 84.1011C495.719 82.5695 490.196 80.4673 486.759 77.8545C483.336 75.2418 481.595 71.7131 481.595 67.3585C481.595 62.7037 483.592 58.9047 487.629 55.8865C491.667 52.8684 496.845 51.3367 503.239 51.3367C510.503 51.3367 516.492 52.8684 521.145 55.9916C525.858 59.0699 528.77 63.5145 529.941 69.2505H540.837C539.922 61.4123 536.29 54.9105 529.941 49.7C523.547 44.5346 514.736 41.9219 503.434 41.9219C497.295 41.9219 491.772 43.0931 486.759 45.4055C481.745 47.7029 477.798 50.8262 474.991 54.8204C472.124 58.8146 470.699 63.2743 470.699 68.1243C470.699 75.1968 472.995 80.9178 477.603 85.3774C482.211 89.777 489.685 93.0505 499.922 95.1076L508.882 96.8495C516.973 98.4862 522.706 100.739 526.083 103.501C529.46 106.264 531.156 110.048 531.156 114.973C531.156 119.899 528.8 124.088 524.147 127.361C519.434 130.635 513.355 132.272 505.821 132.272C499.832 132.272 494.669 131.19 490.421 128.998C486.128 126.851 482.841 123.983 480.65 120.454C478.443 116.926 477.168 113.036 476.762 108.787H466.016C466.271 115.079 467.967 120.709 470.984 125.68C474.061 130.59 478.563 134.539 484.537 137.407C490.526 140.32 497.685 141.762 505.986 141.762C513.565 141.762 520.109 140.59 525.693 138.173C531.276 135.815 535.569 132.542 538.586 128.443C541.558 124.343 543.044 119.643 543.044 114.358C543.044 106.94 540.537 100.844 535.524 96.1888H535.479Z" fill="var(--fill-0, #FCFCF7)"/>
</g>
</svg>
