<svg preserveAspectRatio="none" width="100%" height="100%" overflow="visible" style="display: block;" viewBox="0 0 604.94 306.021" fill="none" xmlns="http://www.w3.org/2000/svg">
<g id="Group">
<path id="Vector" d="M140.444 239.548H139.975C139.282 241.578 136.897 247.525 131.536 250.813C129.946 251.787 128.56 252.863 127.194 253.756C115.719 261.57 111.458 264.493 106.526 278.356L104.528 277.646C109.665 263.113 114.434 259.845 125.971 252.01C127.317 251.097 128.764 250.123 130.313 249.067C136.693 244.642 139.363 235.955 139.384 230.414L138.895 230.455C138.895 230.455 138.895 230.658 138.874 230.759C138.609 232.261 136.449 234.778 131.23 237.762C131.23 237.762 131.23 237.782 131.19 237.782C127.031 240.157 121.018 242.816 112.783 245.495C110.908 246.104 109.522 247.606 109.175 249.392C108.87 250.874 109.4 251.746 109.909 252.193C110.134 252.376 110.378 252.538 110.643 252.66C103.224 255.786 91.7681 260.819 89.7909 262.747C87.2022 265.305 87.6914 268.532 91.2585 272.368C91.4623 272.571 91.4419 272.713 91.4419 272.795C91.3604 273.748 89.2609 275.413 87.5487 276.732C84.8785 278.823 82.1063 280.974 82.0859 283.451C82.0859 285.277 82.6363 286.637 83.7981 287.51C84.9192 288.342 86.4684 288.667 88.5271 288.464C85.8773 291.61 82.1471 297.09 84.2058 300.622C85.3065 302.449 87.4672 303.464 90.1782 303.342C94.846 303.139 101.593 299.424 106.587 289.621C108.258 290.392 111.703 291.488 115.719 290.128C121.079 288.342 125.462 282.882 128.703 273.951C129.131 272.754 130.191 269.608 130.904 267.497C131.801 268.634 133.167 269.973 134.94 270.562C136.489 271.09 138.079 270.947 139.669 270.136C146.049 266.888 142.319 245.454 140.444 239.527V239.548Z" fill="var(--fill-0, #DCDEBB)"/>
<path id="Vector_2" d="M314.129 212.856C315.984 213.059 317.614 212.613 318.939 211.517C320.468 210.299 321.304 208.452 321.752 206.99C323.24 208.797 325.482 211.517 326.359 212.532C332.943 220.123 339.302 223.878 345.275 223.634C349.739 223.472 352.735 221.097 354.101 219.717C362.743 227.511 370.795 228.648 375.462 227.105C378.173 226.192 379.926 224.405 380.314 222.173C381.007 217.91 375.259 213.912 371.467 211.801C373.567 211.233 374.994 210.339 375.789 209.101C376.604 207.802 376.645 206.26 375.952 204.453C374.994 202.018 371.447 200.922 368.023 199.866C365.842 199.217 363.131 198.344 362.682 197.451C362.641 197.37 362.58 197.268 362.682 196.984C364.761 191.869 364.007 188.5 360.501 186.937C357.831 185.78 344.622 185.09 336.123 184.785C336.347 184.562 336.53 184.319 336.673 184.055C336.999 183.425 337.203 182.37 336.326 181.01C335.307 179.386 333.371 178.432 331.292 178.514C322.18 178.96 315.23 178.574 310.236 177.783C310.215 177.783 310.195 177.783 310.195 177.783C303.937 176.788 300.88 175.043 300.064 173.683C300.003 173.581 299.962 173.5 299.922 173.399L299.371 173.602C301.491 179.062 307.402 186.632 315.372 188.601C317.309 189.068 319.082 189.494 320.753 189.9C335.103 193.33 341.035 194.751 351.594 207.173L349.881 208.614C339.792 196.761 334.471 195.482 320.203 192.072C318.532 191.666 316.758 191.138 314.822 190.773C308.483 189.575 303.958 184.846 302.388 182.959L301.817 183.182C302.286 189.981 306.668 212.065 314.108 212.877L314.129 212.856Z" fill="var(--fill-0, #DCDEBB)"/>
<path id="Vector_3" d="M13.3911 137.391H3.38281V176.219H13.3911V137.391Z" fill="var(--fill-0, #DCDEBB)"/>
<path id="Vector_4" d="M19.2812 176.221C19.9539 174.15 20.382 172.161 20.5858 170.213C20.7896 168.284 20.8915 165.971 20.8915 163.271V137.372H27.455L52.3431 171.938V149.591C52.3431 147.602 52.2005 145.491 51.9355 143.278C51.6501 141.066 51.2628 139.097 50.7329 137.352H54.9522C54.4222 139.097 54.035 141.066 53.7496 143.299C53.4642 145.531 53.3419 147.622 53.3419 149.57V176.18H45.3516L21.9107 143.542L21.9719 163.23C21.9719 165.626 22.0738 167.878 22.298 169.969C22.5222 172.08 22.9503 174.13 23.5822 176.16H19.3016L19.2812 176.221Z" fill="var(--fill-0, #DCDEBB)"/>
<path id="Vector_5" d="M82.9005 140.354C80.1895 140.354 77.8454 140.76 75.8682 141.592C73.891 142.425 71.9138 143.683 69.957 145.388V139.299H105.852V145.388C103.855 143.663 101.898 142.384 100.023 141.572C98.1269 140.76 95.7624 140.354 92.9088 140.354V178.127H82.9005V140.354Z" fill="var(--fill-0, #DCDEBB)"/>
<path id="Vector_6" d="M110.621 139.299H120.629V178.127H110.621V139.299ZM120.12 155.415H136.345V156.978H120.12V155.415ZM135.713 139.299H145.721V178.127H135.713V139.299Z" fill="var(--fill-0, #DCDEBB)"/>
<path id="Vector_7" d="M151.774 178.127V139.299H182.655V145.388C180.698 144.089 178.823 143.094 177.009 142.404C175.215 141.694 173.116 141.186 170.731 140.862C168.346 140.537 165.35 140.354 161.762 140.354V177.092C165.533 177.092 168.631 176.95 171.057 176.686C173.483 176.402 175.664 175.915 177.58 175.184C179.516 174.474 181.473 173.418 183.47 172.058V178.148H151.754L151.774 178.127Z" fill="var(--fill-0, #DCDEBB)"/>
<g id="Group_2">
<path id="Vector_8" d="M60.0903 54.3149C55.4021 51.0673 49.3482 47.4341 41.9694 43.395C37.0163 40.7361 33.1434 38.544 30.3305 36.7781C27.5176 35.0123 25.2143 33.1449 23.4002 31.1558C21.586 29.1667 20.6892 27.0355 20.6892 24.7419C20.6892 21.7176 22.1364 19.3226 25.0104 17.5161C27.8845 15.7097 31.9204 14.8166 37.0978 14.8166C41.3783 14.8166 46.413 15.7909 52.1815 17.7394C57.95 19.6879 63.7797 22.5701 69.6909 26.4063L70.3635 16.9072C60.233 13.9641 50.4897 12.4824 41.093 12.4824C34.7333 12.4824 28.9648 13.1928 23.8078 14.6339C18.6304 16.075 14.513 18.2265 11.4555 21.0884C8.39796 23.9503 6.84883 27.4211 6.84883 31.4603C6.84883 34.7078 8.05145 37.7524 10.4567 40.6143C12.8619 43.4762 15.8583 46.0742 19.4458 48.3881C23.0333 50.702 27.8845 53.6045 34.0199 57.055C40.9707 60.952 46.5761 64.3214 50.877 67.163C55.1575 70.0046 58.7858 73.2927 61.7413 77.0477C64.6969 80.8027 66.1849 84.9636 66.1849 89.5304C66.1849 93.1433 65.2881 96.5127 63.4739 99.6384C61.6598 102.764 59.1119 105.24 55.8302 107.087C52.5484 108.935 48.859 109.848 44.8027 109.848C40.0738 109.848 35.3856 108.529 30.7178 105.87C26.05 103.211 21.8918 99.0092 18.182 93.2245C14.4926 87.4398 11.7816 80.1126 10.0898 71.2021L0 84.3344C1.99757 90.4438 5.09585 95.5587 9.31522 99.679C13.5346 103.799 18.3451 106.864 23.7874 108.894C29.2094 110.924 34.8556 111.939 40.6853 111.939C47.1061 111.939 53.1396 110.761 58.7654 108.407C64.3912 106.052 68.9163 102.683 72.3407 98.2988C75.7855 93.9146 77.4977 88.7794 77.4977 82.8933C77.4977 76.7026 75.7855 71.2021 72.3407 66.3917C68.8959 61.5813 64.8396 57.5421 60.1514 54.2946L60.0903 54.3149Z" fill="var(--fill-0, #DCDEBB)"/>
<path id="Vector_9" d="M136.59 30.7511C132.024 27.5644 125.99 25.9609 118.53 25.9609C114.005 25.9609 109.337 26.509 104.445 27.6253C99.5531 28.7416 94.8649 30.203 90.3602 32.0501L93.3566 43.4165C96.8421 38.5655 100.715 34.7293 105.036 31.9283C109.378 29.1476 113.577 27.7268 117.633 27.7268C120.895 27.7268 123.422 28.8431 125.216 31.0555C127.03 33.2476 127.947 36.5358 127.947 40.8794L125.073 41.6506C116.553 44.1675 109.439 46.7249 103.732 49.323C97.9836 51.9413 93.2139 55.3309 89.3818 59.5324C85.5293 63.734 83.6133 68.788 83.6133 74.6741C83.6133 78.2058 84.449 81.3925 86.1204 84.2138C87.7919 87.0554 90.2175 89.3084 93.4381 91.0133C96.6587 92.7183 100.552 93.5505 105.138 93.5505C109.276 93.5505 113.373 92.4544 117.45 90.242C121.506 88.05 125.012 85.2084 127.988 81.7375V91.8861H143.52V45.7304C143.52 38.9511 141.217 33.9783 136.631 30.7714L136.59 30.7511ZM127.947 79.9311C125.583 82.4479 122.974 84.4574 120.14 85.9593C117.287 87.4613 114.596 88.2326 112.089 88.2326C108.318 88.2326 105.24 86.7306 102.835 83.7673C100.43 80.7836 99.227 76.7241 99.227 71.5687C99.227 64.3429 101.449 58.4567 105.933 53.8492C110.397 49.2418 117.735 45.5071 127.947 42.6452V79.9514V79.9311Z" fill="var(--fill-0, #DCDEBB)"/>
<path id="Vector_10" d="M206.343 27.9889C203.917 26.7507 201.329 26.1621 198.577 26.1621C194.867 26.1621 191.096 27.0755 187.223 28.8616C183.33 30.6681 179.518 33.4691 175.747 37.2647C172.955 40.0657 170.366 43.3944 167.981 47.2306V28.1512H152.449V91.8437H167.981V50.2751C170.04 46.7028 172.323 43.5365 174.851 40.7964C177.663 37.7518 180.497 35.377 183.33 33.6924C186.184 32.0077 188.772 31.1552 191.137 31.1552C193.501 31.1552 195.499 32.1701 196.905 34.2404C198.312 36.3107 199.005 39.477 199.005 43.7394V91.864H214.537V43.0696C214.537 39.3147 213.783 36.1686 212.254 33.6315C210.746 31.0943 208.769 29.2067 206.323 28.0092L206.343 27.9889Z" fill="var(--fill-0, #DCDEBB)"/>
<path id="Vector_11" d="M270.386 87.6643C266.472 90.0188 262.803 91.196 259.42 91.196C255.058 91.196 251.266 89.8158 248.066 87.0554C244.846 84.295 242.379 80.4588 240.647 75.5672C238.914 70.6756 238.038 65.1751 238.038 59.0656C238.038 52.9562 238.853 48.0037 240.484 43.3353C242.114 38.667 244.479 34.9932 247.577 32.2937C250.675 29.6144 254.385 28.2545 258.666 28.2545C262.131 28.2545 265.902 29.2897 269.978 31.3397C274.035 33.41 277.744 36.3125 281.067 40.0675L283.289 30.1422C279.66 28.8228 275.726 27.7877 271.487 27.057C267.247 26.3263 263.231 25.9609 259.461 25.9609C250.818 25.9609 243.745 27.4223 238.282 30.3248C232.819 33.2273 228.865 37.1041 226.419 41.9145C223.973 46.7452 222.75 52.1646 222.75 58.1928C222.75 65.3983 224.483 71.6904 227.968 77.0083C231.433 82.3464 236.162 86.4262 242.114 89.2678C248.066 92.1094 254.589 93.5099 261.682 93.5099C265.677 93.5099 269.673 93.0228 273.647 92.0282C277.643 91.0336 281.454 89.4707 285.062 87.3395L282.29 77.4142C278.295 81.8999 274.34 85.3301 270.427 87.6846L270.386 87.6643Z" fill="var(--fill-0, #DCDEBB)"/>
<path id="Vector_12" d="M329.702 87.4402C326.42 90.6065 323.261 92.1897 320.223 92.1897C318.002 92.1897 316.167 91.2357 314.74 89.3278C313.293 87.4199 312.58 84.5783 312.58 80.8233V29.8165H328.988V28.0507H312.58V3.30844H310.704C310.704 6.47479 310.276 9.64115 309.42 12.8075C308.564 15.9739 307.321 18.8764 305.649 21.5353C303.978 24.1942 302.001 26.366 299.718 28.0507H290.403V29.8165H297.048V70.9995C297.048 75.6272 298.23 79.6867 300.594 83.1372C302.959 86.5877 306.057 89.2669 309.909 91.1343C313.742 93.0016 317.818 93.9556 322.099 93.9556C326.094 93.9556 329.865 93.0828 333.412 91.3575C336.958 89.6323 339.914 87.0748 342.278 83.6852L338.609 74.4094C335.959 79.9302 332.963 84.2738 329.681 87.4402H329.702Z" fill="var(--fill-0, #DCDEBB)"/>
<path id="Vector_13" d="M391.18 63.3678C390.446 68.5233 389.019 73.1714 386.92 77.3323C384.82 81.4932 382.333 84.7205 379.5 86.9937C376.646 89.267 373.833 90.424 371.02 90.424C368.574 90.424 366.577 89.5309 365.028 87.7853C363.479 86.0195 362.704 83.4011 362.704 79.9506V28.0508H347.172V73.5367C347.172 77.8803 348.069 81.5541 349.842 84.5784C351.615 87.6027 354.021 89.8556 357.058 91.3779C360.095 92.8799 363.377 93.6309 366.923 93.6309C372.162 93.6309 376.891 91.723 381.11 87.8868C385.33 84.0709 388.571 78.611 390.874 71.5476H391.2V91.8651H406.712V28.0508H391.2V63.3678H391.18Z" fill="var(--fill-0, #DCDEBB)"/>
<path id="Vector_14" d="M466.391 30.7511C461.805 27.5644 455.792 25.9609 448.311 25.9609C443.807 25.9609 439.118 26.509 434.226 27.6253C429.334 28.7416 424.646 30.203 420.141 32.0501L423.138 43.4165C426.623 38.5655 430.496 34.7293 434.838 31.9283C439.159 29.1476 443.358 27.7268 447.414 27.7268C450.676 27.7268 453.203 28.8431 454.997 31.0555C456.811 33.2476 457.728 36.5358 457.728 40.8794L454.854 41.6506C446.354 44.1675 439.22 46.7249 433.513 49.323C427.785 51.9413 422.995 55.3309 419.163 59.5324C415.331 63.734 413.395 68.788 413.395 74.6741C413.395 78.2058 414.23 81.3925 415.902 84.2138C417.573 87.0554 419.999 89.3084 423.219 91.0133C426.44 92.7183 430.333 93.5505 434.919 93.5505C439.057 93.5505 443.154 92.4544 447.231 90.242C451.287 88.05 454.793 85.2084 457.769 81.7375V91.8861H473.301V45.7304C473.301 38.9511 470.998 33.9783 466.432 30.7714L466.391 30.7511ZM457.749 79.9311C455.384 82.4479 452.775 84.4574 449.942 85.9593C447.088 87.4613 444.398 88.2326 441.911 88.2326C438.14 88.2326 435.042 86.7306 432.636 83.7673C430.231 80.7836 429.029 76.7241 429.029 71.5687C429.029 64.3429 431.25 58.4567 435.735 53.8492C440.199 49.2418 447.557 45.5071 457.749 42.6452V79.9514V79.9311Z" fill="var(--fill-0, #DCDEBB)"/>
<path id="Vector_15" d="M518.902 28.3746C514.459 30.5058 510.566 34.2405 507.202 39.5787C503.839 44.9168 501.271 51.3713 499.497 58.9624H499.395V28.0499H483.863V91.8641H499.395V64.0367C501.169 56.5268 503.574 50.4173 506.591 45.7084C509.608 40.9995 513.195 37.9549 517.292 36.595C521.389 35.2351 525.955 35.7019 530.99 37.9752L532.865 28.0499C527.993 26.1419 523.326 26.2434 518.902 28.3746Z" fill="var(--fill-0, #DCDEBB)"/>
<path id="Vector_16" d="M589.408 28.0507V69.8831C588.389 73.8614 586.88 77.3119 584.924 80.2144C582.967 83.1169 580.827 85.309 578.503 86.8313C576.179 88.3332 573.937 89.0842 571.797 89.0842C569.656 89.0842 567.7 88.2927 565.926 86.7095C564.153 85.1466 562.767 82.7515 561.707 79.6055C560.688 76.4391 560.158 72.5421 560.158 67.894V28.0507C560.158 22.6719 558.609 17.8818 555.49 13.6397C552.392 9.41788 548.009 6.08915 542.343 3.65349C536.697 1.21783 530.153 0 522.775 0C517.76 0 512.461 0.649509 506.937 1.92823C501.392 3.22725 495.706 5.19607 489.855 7.855L492.403 17.7803C498.315 12.4828 504.083 8.40303 509.689 5.54113C515.314 2.65893 520.451 1.21783 525.098 1.21783C529.012 1.21783 532.416 2.21239 535.29 4.16092C538.164 6.10945 540.447 9.09313 542.118 13.0917C543.79 17.1105 544.626 22.0833 544.626 28.0507V63.9361C544.626 69.8831 545.645 75.1401 547.683 79.6664C549.701 84.2129 552.412 87.6634 555.775 90.0991C559.139 92.5145 562.747 93.7323 566.579 93.7323C569.391 93.7323 572.245 93.0422 575.18 91.6417C578.095 90.2412 580.806 88.1709 583.313 85.4105C585.841 82.65 587.777 79.2807 589.184 75.3025H589.408V92.8392C589.408 97.4061 588.593 101.445 586.921 104.977C584.801 109.483 569.534 127.426 540.549 106.032C542.343 108.894 544.605 112.832 546.501 117.033C550.394 118.211 567.435 122.514 584.047 113.928C590.549 110.559 595.706 106.134 599.396 100.288C603.106 94.4427 604.94 87.704 604.94 80.0317V28.0507H589.408Z" fill="var(--fill-0, #DCDEBB)"/>
</g>
<path id="Vector_17" d="M182.25 305.635L155.527 228.141H171.059L197.782 305.635H182.25Z" fill="var(--fill-0, #DCDEBB)"/>
<path id="Vector_18" d="M196.008 305.635L217.288 244.033H219.061L197.781 305.635H196.008Z" fill="var(--fill-0, #DCDEBB)"/>
<path id="Vector_19" d="M230.375 305.635L203.652 228.141H219.164L245.887 305.635H230.375Z" fill="var(--fill-0, #DCDEBB)"/>
<path id="Vector_20" d="M244.355 305.635L245.558 301.88L256.606 268.877C260.52 258.789 264.576 250.265 268.754 243.262C272.933 236.28 277.254 230.495 281.718 225.928C286.182 221.361 290.932 217.647 295.966 214.785L303.508 224.832C293.378 227.775 284.47 232.951 276.785 240.339C269.101 247.727 262.476 258.546 256.932 272.734L245.884 305.635" fill="var(--fill-0, #DCDEBB)"/>
<path id="Vector_21" d="M306.445 306C299.637 306 293.767 304.681 288.813 302.022C283.86 299.363 280.028 295.527 277.338 290.493C274.647 285.459 273.281 279.472 273.281 272.55C273.281 265.629 274.627 259.499 277.338 254.385C280.028 249.27 283.881 245.352 288.875 242.632C293.868 239.913 299.719 238.553 306.445 238.553C313.172 238.553 318.92 239.913 323.914 242.632C328.908 245.352 332.76 249.27 335.491 254.385C338.223 259.499 339.588 265.548 339.588 272.55C339.588 279.553 338.243 285.459 335.532 290.493C332.842 295.527 328.969 299.383 323.954 302.022C318.92 304.681 313.09 306 306.445 306ZM306.445 304.234C310.298 304.234 313.6 302.712 316.372 299.647C319.144 296.603 321.264 292.665 322.752 287.834C324.219 283.004 324.974 277.909 324.974 272.55C324.974 267.476 324.24 262.442 322.752 257.49C321.264 252.517 319.124 248.417 316.331 245.19C313.518 241.942 310.236 240.339 306.465 240.339C302.695 240.339 299.209 241.963 296.437 245.19C293.665 248.437 291.565 252.517 290.118 257.449C288.671 262.382 287.957 267.415 287.957 272.571C287.957 278.01 288.65 283.146 290.057 287.976C291.463 292.807 293.563 296.724 296.376 299.728C299.189 302.753 302.552 304.255 306.465 304.255" fill="var(--fill-0, #DCDEBB)"/>
<path id="Vector_22" d="M378.867 306C372.059 306 366.188 304.681 361.235 302.022C356.282 299.363 352.45 295.527 349.759 290.493C347.069 285.459 345.703 279.472 345.703 272.55C345.703 265.629 347.048 259.499 349.759 254.385C352.45 249.27 356.302 245.352 361.296 242.632C366.29 239.913 372.14 238.553 378.867 238.553C385.593 238.553 391.342 239.913 396.336 242.632C401.329 245.352 405.182 249.27 407.913 254.385C410.645 259.499 412.01 265.548 412.01 272.55C412.01 279.553 410.665 285.459 407.954 290.493C405.263 295.527 401.391 299.383 396.376 302.022C391.342 304.681 385.512 306 378.867 306ZM378.867 304.234C382.699 304.234 386.022 302.712 388.794 299.647C391.566 296.603 393.686 292.665 395.174 287.834C396.662 283.004 397.395 277.909 397.395 272.55C397.395 267.476 396.662 262.442 395.174 257.49C393.686 252.517 391.545 248.417 388.753 245.19C385.94 241.942 382.658 240.339 378.887 240.339C375.116 240.339 371.631 241.963 368.859 245.19C366.087 248.437 363.987 252.517 362.54 257.449C361.093 262.382 360.379 267.415 360.379 272.571C360.379 278.01 361.072 283.146 362.479 287.976C363.885 292.807 365.985 296.724 368.798 299.728C371.61 302.753 374.974 304.255 378.887 304.255" fill="var(--fill-0, #DCDEBB)"/>
<path id="Vector_23" d="M444.684 305.898C440.241 305.898 436.062 304.68 432.108 302.265C428.153 299.829 424.953 296.175 422.528 291.284C420.082 286.392 418.879 280.445 418.879 273.463C418.879 266.095 420.347 259.823 423.302 254.647C426.258 249.451 430.334 245.514 435.553 242.834C440.771 240.155 446.723 238.816 453.449 238.816C457.363 238.816 461.439 239.404 465.638 240.582V214.561H481.15V304.173H465.638V290.492C463.865 295.567 461.073 299.423 457.261 302.021C453.449 304.639 449.25 305.938 444.684 305.938M449.801 302.468C452.022 302.468 454.183 301.777 456.282 300.377C458.382 298.976 460.257 296.947 461.888 294.308C463.519 291.649 464.762 288.422 465.659 284.586V242.53C463.07 241.718 460.481 241.312 457.893 241.312C452.94 241.312 448.618 242.53 444.929 244.945C441.24 247.381 438.365 251.014 436.348 255.865C434.309 260.716 433.29 266.643 433.29 273.646C433.29 279.674 434.044 284.87 435.573 289.214C437.081 293.557 439.12 296.845 441.668 299.098C444.215 301.351 446.926 302.468 449.821 302.468" fill="var(--fill-0, #DCDEBB)"/>
<path id="Vector_24" d="M520.224 306C516.004 306 511.683 305.615 507.26 304.843C502.816 304.072 498.495 303.017 494.296 301.697L496.844 291.772C502.246 295.973 507.382 298.896 512.254 300.54C517.125 302.205 521.528 303.017 525.442 303.017C529.355 303.017 532.515 302.326 534.92 300.926C537.325 299.525 538.548 297.678 538.63 295.405C538.63 293.051 537.631 290.777 535.634 288.626C533.636 286.454 531.17 284.404 528.214 282.496C525.258 280.588 521.386 278.295 516.575 275.656C511.398 272.713 507.28 270.237 504.223 268.207C501.145 266.177 498.556 263.945 496.416 261.468C494.276 259.012 493.195 256.435 493.195 253.796C493.195 248.722 496.334 244.906 502.612 242.369C508.891 239.831 516.575 238.553 525.666 238.553C533.269 238.553 540.587 239.405 547.619 241.09L545.948 251.035C542.034 248.316 537.305 245.982 531.761 244.033C526.216 242.084 521.345 241.11 517.125 241.11C513.497 241.11 510.582 241.739 508.361 242.978C506.139 244.236 505.038 246.063 505.038 248.498C505.038 250.345 506.383 252.213 509.074 254.121C511.765 256.029 516.086 258.606 521.997 261.854C527.766 264.939 532.474 267.679 536.123 270.074C539.771 272.469 542.951 275.209 545.601 278.295C548.251 281.38 549.596 284.627 549.596 288.017C549.454 294.208 546.539 298.754 540.893 301.657C535.246 304.559 528.357 306.021 520.224 306.021" fill="var(--fill-0, #DCDEBB)"/>
<path id="Vector_25" d="M97.0033 189.921C96.3306 189.8 78.9436 186.613 68.4665 195.178C63.0038 199.664 60.1093 206.484 59.8851 215.516L60.517 215.821C67.0193 209.63 76.5383 201.876 84.814 199.644L85.344 200.943C71.524 206.139 56.4199 222.153 50.0195 230.678L50.4883 231.206C53.6682 229.481 58.764 225.604 66.9581 223.98C80.6966 221.26 96.9829 218.743 97.0033 190.875V189.942V189.921Z" fill="var(--fill-0, #DCDEBB)"/>
<path id="Vector_26" d="M421.915 168.02C416.758 143.359 401.879 144.11 389.241 144.212C381.699 144.273 376.481 141.776 373.342 140.822L373.016 141.37C380.252 147.744 396.579 159.171 409.767 161.241L409.543 162.479C401.817 162.013 391.952 156.898 385.062 152.595L384.553 152.98C386.408 160.916 390.219 166.437 395.886 169.421C406.73 175.104 421.549 169.117 422.119 168.873L421.936 168.041L421.915 168.02Z" fill="var(--fill-0, #DCDEBB)"/>
<g id="Group_3">
<path id="Vector_27" d="M245.05 218.195C241.993 221.219 237.631 221.767 234.023 218.154C230.517 214.643 231.006 210.177 234.064 207.173C237.121 204.149 241.585 203.702 245.091 207.214C248.699 210.827 248.108 215.191 245.05 218.195Z" fill="var(--fill-0, #DCDEBB)"/>
<path id="Vector_28" d="M265.496 228.101C262.438 231.125 258.076 231.673 254.468 228.06C250.962 224.549 251.452 220.083 254.509 217.079C257.567 214.055 262.031 213.609 265.537 217.12C269.144 220.733 268.553 225.097 265.496 228.101Z" fill="var(--fill-0, #DCDEBB)"/>
<path id="Vector_29" d="M266.207 206.89C263.149 209.914 258.787 210.462 255.179 206.849C251.673 203.338 252.163 198.872 255.22 195.868C258.278 192.844 262.742 192.398 266.247 195.909C269.855 199.522 269.264 203.886 266.207 206.89Z" fill="var(--fill-0, #DCDEBB)"/>
</g>
<path id="Vector_30" d="M437.491 216.774L437.043 217.302C419.024 202.688 399.394 189.82 378.277 180.158C225.463 109.443 106.994 288.931 2.38672 241.273L2.6517 239.426C30.1489 250.021 59.6641 246.043 90.8915 233.56C130.558 217.647 167.125 194.792 206.792 178.372C276.462 148.292 344.42 148.251 407.833 192.966C418.229 200.252 428.115 208.209 437.491 216.754V216.774Z" fill="var(--fill-0, #DCDEBB)"/>
<path id="Vector_31" d="M254.567 212.917L254.037 213.262C250.551 208.066 246.026 203.641 240.869 200.17C222.28 187.505 196.882 188.296 177.823 199.379L174.48 193.29V193.188C201.794 179.406 238.872 185.678 254.547 212.917H254.567Z" fill="var(--fill-0, #DCDEBB)"/>
<path id="Vector_32" d="M377.378 148.251L376.868 149.002C344.703 131.506 308.054 120.911 271.975 130.958C252.998 135.565 235.122 143.887 216.675 150.544C198.146 157.324 177.926 162.357 158.113 159.617C188.158 159.232 214.677 144.902 241.787 133.637C291.992 111.838 334.532 117.338 377.378 148.251Z" fill="var(--fill-0, #DCDEBB)"/>
<path id="Vector_33" d="M516.107 184.44C516.128 184.298 516.148 184.237 516.168 184.115C564.864 155.597 527.848 104.469 527.848 104.469C524.444 132.722 516.372 148.818 507.179 157.911C505.467 159.616 503.714 161.057 501.941 162.275C501.941 162.275 501.9 162.316 501.88 162.336C501.88 162.336 501.859 162.336 501.839 162.356C488.284 118.596 454.081 121.295 454.081 121.295C466.779 132.215 471.447 151.721 473.363 164.69C478.989 165.969 489.588 166.619 497.762 164.244L497.966 164.69C497.823 164.772 497.66 164.873 497.518 164.954L496.621 165.401C488.06 169.481 479.682 169.46 473.954 169.034C473.445 168.993 468.369 168.242 466.8 168.263C459.992 168.405 456.343 174.129 454.468 178.797C447.823 175.813 439.567 182.775 444.765 189.494L445.01 189.311C441.973 185.191 445.051 178.432 452.552 179.873C453.021 179.954 453.469 180.096 453.897 180.258C453.021 182.816 452.715 184.785 452.715 184.785C453.775 183.547 455.1 182.653 456.506 182.045C456.69 182.227 456.873 182.41 457.016 182.613C461.847 189.23 457.077 199.947 445.254 198.039C442.217 197.552 439.425 195.968 437.611 193.512C435.144 190.163 434.146 186.063 434.777 181.943C435.409 177.843 436.958 173.337 440.342 170.881L440.199 170.678C436.551 173.337 434.146 177.275 433.452 181.74C432.759 186.205 433.86 190.671 436.53 194.304C439.221 197.957 443.379 199.886 447.619 199.886C450.615 199.886 453.632 198.911 456.16 196.902C460.868 193.147 461.643 186.632 458.096 181.801C458.035 181.699 457.953 181.639 457.892 181.537C460.95 180.705 464.333 181.294 466.942 183.445C478.989 193.37 502.348 218.214 554.122 201.509C530.804 201.509 517.656 186.368 516.087 184.44H516.107Z" fill="var(--fill-0, #DCDEBB)"/>
</g>
</svg>
