<svg preserveAspectRatio="none" width="100%" height="100%" overflow="visible" style="display: block;" viewBox="0 0 277 55" fill="none" xmlns="http://www.w3.org/2000/svg">
<g id="Layer_1" clip-path="url(#clip0_0_4)">
<g id="Group">
<path id="Vector" d="M71.5312 10.5547H77.1283V24.6675H92.9478V10.5547H98.5448V44.1588H92.9478V29.5649H77.1283V44.1588H71.5312V10.5547Z" fill="var(--fill-0, #2FBCDD)"/>
<path id="Vector_2" d="M101.223 31.8679C101.223 24.3798 106.332 19.2891 113.924 19.2891C121.516 19.2891 126.625 24.3798 126.625 31.8679C126.625 39.3561 121.516 44.4468 113.924 44.4468C106.332 44.4468 101.223 39.4074 101.223 31.8679ZM121.272 31.8679C121.272 27.1164 118.354 23.7055 113.924 23.7055C109.494 23.7055 106.624 27.1124 106.624 31.8679C106.624 36.6234 109.494 40.0304 113.924 40.0304C118.354 40.0304 121.272 36.6234 121.272 31.8679Z" fill="var(--fill-0, #2FBCDD)"/>
<path id="Vector_3" d="M129.449 10.5547H134.754V44.1588H129.449V10.5547Z" fill="var(--fill-0, #2FBCDD)"/>
<path id="Vector_4" d="M138.848 19.5769H143.473L144.009 22.7473C145.324 20.9728 147.563 19.2891 151.261 19.2891C154.571 19.2891 157.538 20.681 159.001 23.7528C160.608 21.1108 163.383 19.2891 167.52 19.2891C172.678 19.2891 176.915 22.1203 176.915 29.5138V44.155H171.61V29.8017C171.61 25.9137 169.811 23.7528 166.401 23.7528C162.799 23.7528 160.512 26.2962 160.512 30.3774V44.155H155.255V29.8017C155.255 25.9137 153.404 23.7528 149.998 23.7528C146.396 23.7528 144.157 26.4894 144.157 30.5233V44.155H138.852V19.5769H138.848Z" fill="var(--fill-0, #2FBCDD)"/>
<path id="Vector_5" d="M180.074 31.9152C180.074 24.3285 184.992 19.2891 192.34 19.2891C199.688 19.2891 204.409 23.8514 204.409 31.241V33.0154H185.575V33.3033C185.575 37.4318 188.398 40.2157 192.536 40.2157C195.798 40.2157 198.181 38.6305 198.912 35.9413H204.169C203.294 40.7402 199.012 44.4389 192.827 44.4389C184.992 44.4389 180.074 39.4468 180.074 31.9074V31.9152ZM199.056 29.1787C198.616 25.5312 196.086 23.4649 192.388 23.4649C189.077 23.4649 186.159 25.5785 185.719 29.1787H199.056Z" fill="var(--fill-0, #2FBCDD)"/>
<path id="Vector_6" d="M206.508 36.0911H211.665C211.861 38.5871 214.148 40.4128 217.894 40.4128C221.252 40.4128 223.295 39.2141 223.295 37.1005C223.295 34.845 221.056 34.4113 217.454 33.9815C211.613 33.3584 206.992 32.207 206.992 26.9744C206.992 22.3174 211.225 19.293 217.214 19.293C223.203 19.293 227.677 22.0769 228.02 26.9744H222.863C222.571 24.8608 220.576 23.3742 217.266 23.3742C213.956 23.3742 212.157 24.431 212.157 26.446C212.157 28.7488 214.396 29.1826 217.998 29.6124C223.839 30.2827 228.46 31.3908 228.46 36.7654C228.46 41.4696 223.934 44.4468 217.898 44.4468C211.229 44.4468 206.704 41.4223 206.508 36.095V36.0911Z" fill="var(--fill-0, #2FBCDD)"/>
<path id="Vector_7" d="M249.288 10.5547H256.005L268.706 44.1588H262.669L259.507 35.8544H245.538L242.376 44.1588H236.535L249.288 10.5547ZM257.952 31.1462L252.499 16.505L247.097 31.1462H257.952Z" fill="var(--fill-0, #2FBCDD)"/>
<path id="Vector_8" d="M271.402 10.5547H276.999V44.1588H271.402V10.5547Z" fill="var(--fill-0, #2FBCDD)"/>
</g>
<path id="Vector_9" d="M46.4752 0H39.227C37.7518 0 36.5485 1.18691 36.5485 2.64196V13.8446L26.0701 7.89432C25.5224 7.57887 24.8987 7.42114 24.259 7.42114C23.6194 7.42114 22.9997 7.58675 22.448 7.89432L12.6013 13.541L12.5853 2.6459C12.5853 1.19085 11.3819 0.00394322 9.90671 0.00394322H2.67057C1.19936 0 0 1.18691 0 2.64196L0.0159915 52.362C0.0159915 53.821 1.21935 55.0039 2.69456 55.0039H9.93469C11.4099 55.0039 12.6133 53.821 12.6133 52.362V39.3494C12.6133 39.2311 12.7132 39.1522 12.8052 39.1522C12.8371 39.1522 12.8731 39.164 12.9011 39.1798L23.1716 45.0276C23.7153 45.3431 24.343 45.5087 24.9827 45.5087C25.6223 45.5087 26.25 45.3431 26.7977 45.0237L36.2726 39.5978C36.3046 39.5781 36.3366 39.5662 36.3726 39.5662C36.4685 39.5662 36.5645 39.6451 36.5645 39.7634V52.362C36.5645 53.821 37.7638 55.0039 39.243 55.0039H46.4832C47.9584 55.0039 49.1537 53.821 49.1537 52.362V2.64196C49.1537 1.18691 47.9544 0 46.4832 0H46.4752ZM2.73854 2.7011H9.85473V15.1104L2.73854 19.1956V2.7011ZM9.87073 52.2989H2.76252V33.4069L9.67883 37.3462C9.79876 37.4133 9.87073 37.5355 9.87073 37.6696V52.295V52.2989ZM46.4072 52.2989H39.295V38.0718C39.295 37.9416 39.367 37.8194 39.4829 37.7524L46.4072 33.7815V52.2989ZM46.4072 30.4929C46.4072 30.6546 46.3033 30.7137 46.2673 30.7334L25.4144 42.6814C25.2825 42.7603 25.1306 42.7997 24.9747 42.7997C24.8187 42.7997 24.6668 42.7603 24.5349 42.6853L2.90245 30.3707C2.78251 30.2997 2.76252 30.1972 2.76252 30.1222C2.76252 30.0079 2.8105 29.9251 2.90245 29.8699L6.3646 27.8904C6.43256 27.851 6.50452 27.8273 6.58448 27.8273C6.66444 27.8273 6.7364 27.847 6.80436 27.8825L23.2476 37.2476C23.7913 37.5631 24.415 37.7287 25.0466 37.7287C25.6783 37.7287 26.3099 37.5592 26.8656 37.2437L42.4453 28.3123C42.5133 28.2768 42.5932 28.2571 42.6652 28.2571C42.7452 28.2571 42.8211 28.2768 42.8851 28.3123L46.2673 30.2405C46.3712 30.2957 46.4032 30.3864 46.4072 30.4574V30.4929ZM46.2673 22.9968L25.4824 34.9093C25.3505 34.9882 25.1985 35.0276 25.0466 35.0276C24.8947 35.0276 24.7428 34.9882 24.6109 34.9093L2.7985 22.4842C2.7985 22.4842 2.74253 22.4527 2.74253 22.3856C2.74253 22.3186 2.78251 22.2989 2.7985 22.2871L23.8313 10.2287C23.9632 10.1498 24.1151 10.1104 24.267 10.1104C24.419 10.1104 24.5709 10.1498 24.7068 10.2248L46.2713 22.5039C46.3672 22.5592 46.4112 22.642 46.4112 22.7524C46.4112 22.8233 46.3912 22.9259 46.2713 22.9929L46.2673 22.9968ZM46.4072 19.4677L39.295 15.418V2.7011H46.4072V19.4677Z" fill="var(--fill-0, #2FBCDD)"/>
</g>
<defs>
<clipPath id="clip0_0_4">
<rect width="277" height="55" fill="white"/>
</clipPath>
</defs>
</svg>
